<?xml version="1.0" encoding="UTF-8" standalone="no"?>
<svg
   xmlns:dc="http://purl.org/dc/elements/1.1/"
   xmlns:cc="http://creativecommons.org/ns#"
   xmlns:rdf="http://www.w3.org/1999/02/22-rdf-syntax-ns#"
   xmlns:svg="http://www.w3.org/2000/svg"
   xmlns="http://www.w3.org/2000/svg"
   xmlns:sodipodi="http://sodipodi.sourceforge.net/DTD/sodipodi-0.dtd"
   xmlns:inkscape="http://www.inkscape.org/namespaces/inkscape"
   width="542.43298"
   height="482.35901"
   viewBox="0 0 542.43298 482.35901"
   version="1.1"
   id="svg12"
   sodipodi:docname="logo.svg"
   inkscape:version="0.92.5 (2060ec1f9f, 2020-04-08)"
   style="fill:none">
  <metadata
     id="metadata18">
    <rdf:RDF>
      <cc:Work
         rdf:about="">
        <dc:format>image/svg+xml</dc:format>
        <dc:type
           rdf:resource="http://purl.org/dc/dcmitype/StillImage" />
        <dc:title></dc:title>
      </cc:Work>
    </rdf:RDF>
  </metadata>
  <defs
     id="defs16" />
  <sodipodi:namedview
     pagecolor="#ffffff"
     bordercolor="#666666"
     borderopacity="1"
     objecttolerance="10"
     gridtolerance="10"
     guidetolerance="10"
     inkscape:pageopacity="0"
     inkscape:pageshadow="2"
     inkscape:window-width="1920"
     inkscape:window-height="1016"
     id="namedview14"
     showgrid="false"
     inkscape:zoom="0.61749195"
     inkscape:cx="-35.929517"
     inkscape:cy="129.55717"
     inkscape:window-x="0"
     inkscape:window-y="27"
     inkscape:window-maximized="1"
     inkscape:current-layer="svg12"
     fit-margin-top="0"
     fit-margin-left="0"
     fit-margin-right="0"
     fit-margin-bottom="0" />
  <path
     d="M 462.962,463.029 C 512.063,413.946 542.433,346.128 542.433,271.217 542.433,121.428 421.006,0 271.217,0 121.428,0 0,121.428 0,271.217 c 0,75.207 30.611,143.264 80.053,192.392 15.476,12.102 34.618,18.75 54.419,18.75 H 407.81 c 20.117,0 39.553,-6.862 55.152,-19.33 z m -191.745,6.838 c -109.712,0 -198.65,-88.939 -198.65,-198.65 0,-109.712 88.938,-198.65 198.65,-198.65 109.711,0 198.65,88.938 198.65,198.65 0,109.711 -88.939,198.65 -198.65,198.65 z"
     id="path4"
     style="clip-rule:evenodd;fill:#004443;fill-opacity:1;fill-rule:evenodd"
     inkscape:connector-curvature="0" />
  <path
     d="m 261.966,179.587 c 6.507,25.665 27.777,71.824 38.446,92.045 1.13,2.143 2.97,3.8 5.195,4.759 l 8.925,3.846 c 6.816,2.938 13.426,-4.533 9.679,-10.941 -0.339,-0.579 -0.599,-1.183 -0.764,-1.834 -5.577,-22.01 -3.308,-70.613 -9.342,-93.615 -7.653,-29.179 -37.981,-68.464 -47.356,-65.055 -9.374,3.409 -13.393,36.833 -4.783,70.795 z"
     id="path6"
     style="fill:#004443;fill-opacity:1"
     inkscape:connector-curvature="0" />
  <path
     d="m 139.669,194.081 c 16.082,11.186 42.154,30.293 53.28,42.054 12.716,13.443 18.317,19.831 19.528,21.345 -3.936,-10.445 -21.981,-38.058 -62.673,-64.943 -5.703,-3.768 -9.772,-7.265 -12.48,-10.502 -1.218,-8.203 -1.156,-13.993 0.344,-14.966 4.698,-3.045 37.464,11.51 59.377,38.849 16.368,20.422 41.797,58.417 51.95,78.626 1.286,2.559 1.374,5.527 0.395,8.218 l -7.251,19.922 c -2.137,5.874 -10.731,4.885 -11.478,-1.321 -0.128,-1.061 -0.526,-2.062 -1.203,-2.89 -7.043,-8.619 -19.913,-19.672 -32.966,-30.881 -13.866,-11.908 -27.938,-23.993 -35.451,-33.526 -10.079,-12.789 -17.456,-33.319 -21.372,-49.985 z"
     id="path8"
     style="clip-rule:evenodd;fill:#004443;fill-opacity:1;fill-rule:evenodd"
     inkscape:connector-curvature="0" />
  <path
     d="m 427.049,394.61 c -17.314,33.159 -53.111,62.377 -99.317,76.789 -59.839,18.664 -119.433,6.973 -150.938,-25.626 2.39,-11.481 11.701,-23.231 27.665,-29.458 18.03,-7.032 37.37,-4.713 46.97,12.785 -2.825,-7.771 -16.281,-20.629 -32.053,-21.683 -11.118,-0.744 -21.435,5.431 -30.694,10.973 -7.16,4.285 -13.688,8.192 -19.466,8.23 -4.372,0.029 -7.23,-2.871 -9.419,-6.682 -0.834,-2.043 -1.585,-4.132 -2.25,-6.264 -17.395,-55.77 30.597,-120.348 107.193,-144.238 76.596,-23.89 152.79,1.954 170.185,57.724 2.723,8.73 3.844,17.675 3.503,26.646 -0.16,0.76 -0.32,1.551 -0.485,2.361 -1.685,8.313 -3.798,18.729 -10.982,20.85 -5.358,1.582 -12.619,1.703 -20.611,1.837 -10.963,0.184 -23.303,0.39 -33.996,4.42 -14.792,5.573 -27.008,29.328 -15.614,44.098 -8.018,-19.834 8.229,-38.612 27.641,-41.777 16.407,-2.675 34.405,0.839 42.668,9.015 z"
     id="path10"
     style="clip-rule:evenodd;fill:#004443;fill-opacity:1;fill-rule:evenodd"
     inkscape:connector-curvature="0" />
</svg>
